<svg xmlns="http://www.w3.org/2000/svg" width="1993" height="1993" viewBox="0 0 1993 1993">
  <defs>
    <style>
      .cls-1 {
        fill-rule: evenodd;
      }
    </style>
  </defs>
  <path id="shape" data-name="shape" class="cls-1" d="M1917,2022H124A100,100,0,0,1,24,1922V129A100,100,0,0,1,124,29H1917a100,100,0,0,1,100,100V1922A100,100,0,0,1,1917,2022ZM1699.66,918.071q4,16.457,7.33,33.627c35.2,3.618,97.5,3.615,121.75-36.643,34.66-57.506,17.24-128.99-54.46-156.8-55.55-21.543-104.08,13.809-123.14,30.838q9.975,18.229,18.32,37.511c19.33-1.794,63.09-1.742,70.62,34.076C1747.92,898.008,1719.54,912.53,1699.66,918.071Zm-12.76,88.3q-0.9-11.681-2.25-22.945l-0.31-.086-0.4-5.667c-35.65-274.225-267.44-372.065-405.04-423.521-142.3-53.212-292.47-63.335-292.47-63.335L906.6,432.547l74.529,74.736S807.159,523.84,684.865,576.952,419.838,752.936,386.873,863.228c-26.57,88.9-8.579,491.222-9.444,643.482-0.737,129.72-2.853,392.91-3.564,480.29H1690.25C1693.8,1845.71,1706.73,1265.46,1686.9,1006.37ZM301.979,860.694c6.905-32.9,44.28-35.676,65.351-34.524a284.705,284.705,0,0,1,21-39.476c-20.627-17.7-67.382-49.258-120.56-28.6-71.723,27.858-89.147,99.466-54.485,157.072,26.35,43.791,97.566,40.035,130.212,35.715q1.3-16.521,2.985-31.645C326.715,914.578,293.576,900.732,301.979,860.694ZM1985,144a80,80,0,0,0-80-80H142a80,80,0,0,0-80,80V1907a80,80,0,0,0,80,80H341.115c1.444-85.2,6.013-363.75,5.9-470.15-0.1-95.59-15.185-352.78-5.876-529.76-31.215,5.185-99.782,9.561-146.866-38.993-62.685-64.642-37.157-187.116,58.286-222.94,69.64-26.14,129.389,10.141,156.609,31.669C486.834,654.982,622.811,562.6,670.7,540.217c90.853-42.465,209.3-144.4,209.3-144.4s-23.486-41.262-10.136-83.6c12.979-41.167,40.982-65.235,79.826-76s76.025,2.533,76.025,2.533-29.489.574-62.087,22.8-7.6,44.334-7.6,44.334,4.428-9.62,16.472-15.2c13.81-6.4,35.478-8.867,35.478-8.867S979.848,307.49,983.9,329.944s33.014,68.6,139.374,111.47,182.55,50.263,379.9,187.473c55.37,38.5,97.28,80.848,128.99,128.7,26.85-21.408,87.05-58.55,157.32-32.213,95.41,35.762,120.93,158.025,58.27,222.554-41.57,42.8-99.88,44.4-134.44,40.623,11.94,79.115,15.63,169.385,16.67,273.685,1.59,160.11-3.22,599.14-4.67,724.76H1905a80,80,0,0,0,80-80V144ZM523.712,865.119a50,50,0,0,1,50-50H904.5a50.006,50.006,0,0,1,49.313,41.766h150.91a50,50,0,0,1,49.31-41.766h330.82a50,50,0,0,1,50,50v6.631l40.54,9.212v44.177l-40.54,19.46v80.161a50,50,0,0,1-50,50H1154.03a50,50,0,0,1-50-50V924.012H954.5V1024.76a50,50,0,0,1-50,50H573.712a50,50,0,0,1-50-50V944.6l-40.541-19.458V880.962l40.541-9.212v-6.631ZM1140.79,1008.01a30,30,0,0,0,30,30h299.86a30,30,0,0,0,30-30V883.1a30,30,0,0,0-30-30H1170.79a30,30,0,0,0-30,30V1008.01Zm-582.849,0a30,30,0,0,0,30,30H887.806a30,30,0,0,0,30-30V883.1a30,30,0,0,0-30-30H587.941a30,30,0,0,0-30,30V1008.01Zm70.951-119.454a30.409,30.409,0,1,1-30.412,30.408A30.41,30.41,0,0,1,628.892,888.556Zm0,39.272A10.126,10.126,0,1,0,618.765,917.7,10.126,10.126,0,0,0,628.892,927.828Zm800.788-39.272a30.409,30.409,0,1,1-30.39,30.408A30.4,30.4,0,0,1,1429.68,888.556Zm0,39.272a10.126,10.126,0,1,0-10.14-10.126A10.135,10.135,0,0,0,1429.68,927.828ZM976.61,1130.95a19.16,19.16,0,0,1-1.828-8.04c0-18.89,29.218-34.21,65.258-34.21s65.25,15.32,65.25,34.21c0,0.54-.03,1.08-0.07,1.61,27.78,13.64,110.62,58.55,86.25,98.45-12.35,20.22-33.5,22.01-58.65,18.64-0.16,13.34-.47,45.51.08,62.2,0.71,21.39,2.27,70.93-26.69,74.53a55.017,55.017,0,0,1-56.2-30.01,54.8,54.8,0,0,1-56.206,30.45c-28.872-3.62-27.312-53.29-26.609-74.74,0.508-15.49.282-44.27,0.118-59.08-29.148,6.59-53.742,7.84-64.739-16.92C885.711,1190.06,951.291,1146.15,976.61,1130.95Zm81.31,191.81c3.92,20.7,17.55,39.07,35.58,37.9s25.88-23.99,25.42-56.85c-0.32-23.35.46-50.5,0.93-64.26-18.56-3.33-38.7-8.11-58.76-9.7C1059.32,1249.53,1054.7,1305.78,1057.92,1322.76Zm-76.787-18.72c-0.456,32.95,7.363,55.83,25.337,57s31.57-17.24,35.48-38c3.22-17.07-1.43-73.74-3.18-93.33-19.29,1.56-39.523,7.29-58.491,12.11C980.757,1256.18,981.44,1281.82,981.133,1304.04Zm-58.286-84.87c12.3,24.43,85.063-12.45,122.9-13.93,46.72-1.84,100.18,29.39,120.38,7.6,16.34-17.63-49.54-57.53-72.32-70.54-11.77,8.95-31.46,14.82-53.77,14.82-20.45,0-38.7-4.93-50.663-12.65C966.909,1159.96,913.065,1199.75,922.847,1219.17Z" transform="translate(-24 -29)"/>
</svg>